<svg xmlns="http://www.w3.org/2000/svg" width="200" height="54" viewBox="0 0 200 54"><g fill="none" fill-rule="evenodd"><path fill="#FFFFFE" d="M27 36h-.7v-.2H28v.3h-.7v1.8H27v-1.8"></path><g><mask id="f2c2fc96ff3643e6a015bfaf7472c4f3" fill="#fff"><path d="M0 .3h66.3v39.1H0z"></path></mask><path fill="#FFFFFE" d="M30.1 36l-.6 2h-.3l-.7-2v2h-.3v-2.2h.6l.6 1.8.5-1.8h.5V38h-.3V36M3.9 18.3A50.2 50.2 0 000 37.9v1.5h9.2V38c0-7.3 1.5-14 4.1-19.6H4" mask="url(#f2c2fc96ff3643e6a015bfaf7472c4f3)"></path><path fill="#005992" d="M1.6 38h6.2A49 49 0 0111 19.8H4.9a49 49 0 00-3.3 18" mask="url(#f2c2fc96ff3643e6a015bfaf7472c4f3)"></path><path fill="#FFFFFE" d="M65.9 19.5a22 22 0 00-5.1-10.2 12.2 12.2 0 00-9-4.2h-9.5l-2 .2H40c1.7-.8 3.4-1.4 5.1-1.8l5.5-.8S47.6 1 45.1.6c-.9-.2-2-.3-3.2-.3h-.1H26.5h-.1C18.9.3 12.2 4.7 7.6 11.5l-1.2 1.7h9.8a21.8 21.8 0 0115.3-10c-3.3 2-6.2 4.8-8.6 8.3A47 47 0 0015.4 38v1.5h9.2V38c0-9 2.3-17 6-23.2a28 28 0 016.1-7l3.6.6c4.3.7 8.3 5.3 9.7 11.9l.3 1.2h6.4l-.5-1.9a22 22 0 00-6.1-11.2c2 .4 4 1.7 5.8 3.7 1.7 2 3 5 3.8 8.2l.2 1.2h6.4l-.4-1.9" mask="url(#f2c2fc96ff3643e6a015bfaf7472c4f3)"></path></g><path fill="#CD2B2B" d="M51.9 6.6l-1.7.2c5.2 1 9.4 6.1 11 13h3.2C62.7 12.3 57.7 6.7 52 6.7M42.3 6.6l-1.7.2c5.1 1 9.3 6.1 10.9 13h3.3C53 12.3 48 6.7 42.3 6.7"></path><path fill="#CD2B2B" d="M44.9 2l-3.1-.2C28 1.8 16.9 18 16.8 37.9h6.3c0-18.4 9.5-33.6 21.8-35.8M26.4 1.8c-6.6 0-12.6 3.8-17.1 10h6.2c3.8-5.3 8.6-8.8 14-9.7l-3-.3"></path><path fill="#000" d="M53.3 30h-3v-1.1h7.3v1h-3v8h-1.3v-8M58.4 38v-9.1h1.2v3.6c.4-.7 1.1-1 2-1 1.7 0 2.2 1 2.2 2.2v4.2h-1.2v-3.7c0-1-.3-1.8-1.4-1.8-.5 0-1.2.3-1.4.8-.3.7-.2 1.1-.2 1.5v3.2h-1.2M69 34.2c.1-1-.4-1.9-1.5-1.9-1 0-1.6.9-1.6 1.9h3.2zm-3 .8c-.2 1.1.3 2.3 1.5 2.3 1 0 1.4-.4 1.5-1.3h1.3C70 37.4 69 38 67.5 38c-2 0-2.8-1.4-2.8-3.3 0-1.8.9-3.3 2.9-3.3 1.9 0 2.7 1.2 2.7 3v.5H66zM75.1 38v-9.1h1.3v8h4.2v1H75M85.6 34.2c0-1-.5-1.9-1.6-1.9-1 0-1.6.9-1.6 1.9h3.2zm-3.2.8c0 1.1.4 2.3 1.6 2.3 1 0 1.4-.4 1.5-1.3h1.3c-.2 1.4-1.3 2.1-2.8 2.1-2 0-2.8-1.4-2.8-3.3 0-1.8.9-3.3 2.9-3.3 1.8 0 2.7 1.2 2.7 3v.5h-4.4zM90.5 34.9c-.7 0-1.7.3-1.7 1.2 0 .8.5 1.2 1.2 1.2 1.4 0 1.7-1.3 1.7-2.4h-1.2zm1.2-.9c0-1 0-1.7-1.3-1.7-.6 0-1.2.4-1.2 1h-1.3c0-1.4 1.2-1.8 2.4-1.8 1.3 0 2.6.3 2.6 2.1v4.3h-1.1v-1h-.1c-.4.9-1.1 1.2-2 1.2-1 0-2.2-.5-2.2-1.8 0-1.7 1.6-2.3 3.1-2.3h1zM97 37.3c1.4 0 1.7-1.4 1.7-2.5 0-1.2-.4-2.5-1.7-2.5-1.5 0-1.8 1.3-1.8 2.5 0 1.1.4 2.5 1.8 2.5zm1.7-8.4h1.2v9h-1.1v-1h-.1c-.4.9-1.2 1.2-2.2 1.2-1.8 0-2.6-1.7-2.6-3.3 0-1.7.9-3.3 2.9-3.3.8 0 1.5.2 1.9 1v-3.6zM105.4 34.2c0-1-.4-1.9-1.6-1.9-1 0-1.5.9-1.5 1.9h3.1zm-3.1.8c-.1 1.1.3 2.3 1.5 2.3 1 0 1.4-.4 1.6-1.3h1.2c-.2 1.4-1.3 2.1-2.8 2.1-2 0-2.8-1.4-2.8-3.3 0-1.8 1-3.3 3-3.3 1.8 0 2.7 1.2 2.7 3v.5h-4.4zM109.1 38h-1.2v-6.4h1.2V33c.2-1 1-1.3 1.9-1.3h.4v1h-.5c-1.5 0-1.8.9-1.8 2.2V38M114.5 31.5c1.2 0 2.5.5 2.4 1.9h-1.2c0-.8-.6-1-1.3-1-.6 0-1.1.2-1.1 1 0 .6 1 .7 1.5.8 1 .4 2.3.5 2.3 1.9 0 1.5-1.5 2-2.8 2-1.3 0-2.4-.6-2.4-2h1.3c0 .7.5 1.2 1.2 1.2s1.5-.3 1.5-1.1c0-1.4-3.9-.4-3.9-2.8 0-1.4 1.4-2 2.5-2M118.3 38v-9.1h1.2v3.6c.4-.7 1.1-1 2-1 1.7 0 2.2 1 2.2 2.2v4.2h-1.2v-3.7c0-1-.3-1.8-1.4-1.8-.5 0-1.2.3-1.4.8-.3.7-.2 1.1-.2 1.5v3.2h-1.2M125.5 38h1.7v-6.4h-1.7V38zm-.2-7.8h2v-1.3h-2v1.3zM131.3 32.3c-1.4 0-1.8 1.3-1.8 2.5s.3 2.5 1.7 2.5 1.8-1.3 1.8-2.5-.3-2.5-1.7-2.5zm-3 .5v-1.2h1.2v1c.4-.9 1.2-1.1 2.2-1.1 1.7 0 2.6 1.6 2.6 3.3 0 1.6-.8 3.3-3 3.3-.5 0-1.4-.2-1.8-.9v3.1h-1.2v-7.5zM143.8 31.2c0-.8-1-1.4-2-1.4-2.1 0-2.5 2-2.5 3.6 0 1.9.5 3.6 2.5 3.6 1 0 1.8-.4 2-1.4h1.3c-.1 1.5-1.7 2.5-3.4 2.5-2.7 0-3.8-2.2-3.8-4.7 0-2.2 1-4.8 4-4.7 1.8 0 3 .9 3.2 2.5h-1.3M149 37.3c1.4 0 1.9-1.2 1.9-2.5 0-1.4-.5-2.5-1.9-2.5s-1.9 1.1-1.9 2.5c0 1.3.5 2.5 1.9 2.5zm3.1-2.5c0 2-1 3.3-3.1 3.3-2 0-3.1-1.4-3.1-3.3 0-2 1-3.3 3.1-3.3 2 0 3.1 1.3 3.1 3.3zM154.3 32.6c.4-.8 1.3-1.1 2-1.1.4 0 2.3 0 2.3 2V38h-1.2v-4c0-1-.4-1.5-1.4-1.5 0 0-.7 0-1.2.4-.2.2-.5.5-.5 1.7V38h-1.2v-6.3h1.2v1M160.7 38v-5.5h-1.2v-.9h1.2v-1.2c0-1.3 1-1.7 1.9-1.7l.8.1.1 1h-.6c-.6 0-1 .2-1 .8v1h1.5v.9h-1.5v5.4h-1.2M168.2 34.2c0-1-.5-1.9-1.6-1.9-1 0-1.6.9-1.6 1.9h3.2zm-3.2.8c0 1.1.4 2.3 1.6 2.3.9 0 1.4-.4 1.5-1.3h1.3c-.2 1.4-1.3 2.1-2.8 2.1-2 0-2.9-1.4-2.9-3.3 0-1.8 1-3.3 3-3.3 1.8 0 2.7 1.2 2.7 3v.5H165zM171.8 38h-1.2v-6.4h1.2V33c.2-1 1-1.3 1.8-1.3h.5v1h-.6c-1.5 0-1.7.9-1.7 2.2V38M179 34.2c0-1-.4-1.9-1.5-1.9-1 0-1.6.9-1.6 1.9h3.2zm-3.1.8c-.1 1.1.3 2.3 1.6 2.3.9 0 1.3-.4 1.5-1.3h1.2c-.2 1.4-1.3 2.1-2.8 2.1-2 0-2.8-1.4-2.8-3.3 0-1.8 1-3.3 3-3.3 1.8 0 2.7 1.2 2.7 3v.5H176zM182.6 32.6c.5-.8 1.4-1.1 2-1.1.4 0 2.4 0 2.4 2V38h-1.2v-4c0-1-.5-1.5-1.5-1.5 0 0-.6 0-1.1.4-.2.2-.5.5-.5 1.7V38h-1.2v-6.3h1.1v1M192.1 33.7c0-.8-.4-1.4-1.2-1.4-1.2 0-1.6 1-1.6 2.5s.4 2.5 1.6 2.5c.7 0 1.2-.6 1.3-1.5h1.2c-.1 1.5-1.2 2.3-2.6 2.3-2 0-2.8-1.4-2.8-3.3 0-1.8 1-3.3 3-3.3 1.3 0 2.3.8 2.3 2.2h-1.2M198.6 34.2c0-1-.4-1.9-1.6-1.9-1 0-1.6.9-1.6 1.9h3.2zm-3.2.8c0 1.1.4 2.3 1.6 2.3 1 0 1.4-.4 1.5-1.3h1.3c-.2 1.4-1.3 2.1-2.8 2.1-2 0-2.8-1.4-2.8-3.3 0-1.8 1-3.3 2.9-3.3s2.8 1.2 2.8 3v.5h-4.5zM54 50.8c1.4 0 1.8-1.1 1.8-2.4 0-1.4-.4-2.5-1.8-2.5-1.5 0-2 1.1-2 2.5 0 1.3.5 2.4 2 2.4zm3-2.4c0 2-1 3.3-3 3.3-2.1 0-3.2-1.4-3.2-3.3 0-2 1-3.4 3.2-3.4 2 0 3 1.4 3 3.4zM59.6 46.1c.4-.8 1.3-1 1.9-1 .4 0 2.4 0 2.4 2v4.4h-1.2v-4c0-1-.5-1.6-1.5-1.6 0 0-.6 0-1.1.5-.2.2-.5.5-.5 1.7v3.4h-1.2v-6.3h1.2v1M74 44.8c0-.9-1-1.5-2-1.5-2.2 0-2.6 2-2.6 3.7 0 1.8.6 3.6 2.5 3.6 1 0 1.9-.5 2-1.4h1.4c-.2 1.5-1.7 2.5-3.5 2.5-2.6 0-3.7-2.2-3.7-4.7 0-2.2 1-4.8 4-4.7 1.7 0 3 .9 3.2 2.5H74M76.4 51.5h1.7v-6.3h-1.7v6.3zm-.1-7.8h2v-1.2h-2v1.2zM81 51.5l-2.6-6.3h1.3l2 5 2-5H85l-2.8 6.3h-1.1M85.9 51.5h1.7v-6.3h-1.7v6.3zm-.2-7.8h2v-1.2h-2v1.2zM88.8 51.5H90v-9h-1.2zM97.2 48.4c-.7 0-1.7.3-1.7 1.3 0 .7.6 1.1 1.3 1.1 1.4 0 1.7-1.2 1.6-2.4h-1.2zm1.2-.8c0-1 0-1.7-1.3-1.7-.6 0-1.2.3-1.2 1h-1.2c0-1.4 1.1-1.9 2.3-1.9 1.3 0 2.6.4 2.6 2.2v4.3h-1.1v-1c-.5.8-1.2 1.2-2 1.2-1.1 0-2.2-.6-2.2-1.8 0-1.8 1.6-2.3 3-2.3h1.1zM102.4 46.1c.4-.8 1.3-1 2-1 .3 0 2.3 0 2.3 2v4.4h-1.2v-4c0-1-.4-1.6-1.4-1.6 0 0-.7 0-1.2.5-.2.2-.5.5-.5 1.7v3.4h-1.2v-6.3h1.2v1M111 50.9c1.4 0 1.7-1.4 1.7-2.6 0-1.1-.4-2.5-1.8-2.5s-1.7 1.4-1.7 2.5c0 1.2.4 2.6 1.7 2.6zm1.7-8.4h1.2v9h-1.2v-1c-.4.9-1.3 1.2-2.2 1.2-1.8 0-2.6-1.7-2.6-3.3 0-1.7.9-3.4 2.8-3.4.8 0 1.6.3 2 1v-3.5zM118.5 51.5v-9h1.2v3.8h4.3v-3.8h1.3v9H124v-4h-4.3v4h-1.2M131.3 45.2h1.1v6.3h-1.1v-1c-.5.9-1.3 1.2-2.2 1.2-1.3 0-2-1-2-2.3v-4.2h1.1V49c0 1.1.3 2 1.4 2 .5 0 1.2-.3 1.4-1l.3-1.5v-3.2M135.3 46.1a2 2 0 011.8-1c1.2 0 2 .3 2.3 1.1.4-.8 1.1-1.2 2-1.2 1.5 0 2.4 1 2.4 2v4.5h-1.2v-3.7c0-.9-.1-1.9-1.5-1.9-.4 0-1.2.2-1.4 1-.2.6-.1 1.2-.1 1.4v3.2h-1.2v-3.7c0-1.1-.3-1.9-1.4-1.9-.5 0-1.2.2-1.6 1v4.6h-1.2v-6.3h1.1v1M148 48.4c-.7 0-1.7.3-1.7 1.3 0 .7.5 1.1 1.2 1.1 1.4 0 1.7-1.2 1.7-2.4H148zm1.2-.8c0-1 0-1.7-1.4-1.7-.6 0-1.1.3-1.1 1h-1.3c0-1.4 1.2-1.9 2.4-1.9 1.3 0 2.6.4 2.6 2.2v4.3h-1.1v-1h-.1c-.4.8-1.1 1.2-2 1.2-1 0-2.2-.6-2.2-1.8 0-1.8 1.6-2.3 3-2.3h1.2zM153.1 46.1c.5-.8 1.3-1 2-1 .4 0 2.3 0 2.3 2v4.4h-1.2v-4c0-1-.4-1.6-1.4-1.6 0 0-.6 0-1.2.5-.1.2-.5.5-.5 1.7v3.4H152v-6.3h1.1v1M163.3 46.3h2c1.4 0 1.7-.7 1.7-1.4s-.3-1.3-1.7-1.4h-2v2.8zm0 1.1v4.1H162v-9h3.3c1.5 0 3 .4 3 2.2 0 1.1-.6 2-1.7 2.2 1.1.3 1.3.9 1.4 1.9l.6 2.7h-1.4l-.3-1.7c0-.8 0-1.5-.5-2-.4-.4-.9-.3-1.4-.4h-1.7z"></path><g transform="translate(169.5 42)"><path fill="#000" d="M.5 9.5h1.7V3.2H.5v6.3zM.4 1.7h2V.5h-2v1.2zM6 8.5c1.2 0 1.7-1 1.7-2.3C7.7 5 7.2 3.9 6 3.9S4.2 5.2 4.2 6.2c0 1 .4 2.3 1.7 2.3zm1.8-5.3H9l-.1 1.1v4.5c0 2.3-1 3.2-3.3 3.2-1.4 0-2.3-.6-2.3-2h1.2c0 .8.6 1.1 1.5 1.1 1.7 0 1.7-1.4 1.7-2.8-.4.8-1.3 1-2 1-2 0-2.8-1.3-2.8-3C3 4.5 4 3 6 3a2 2 0 011.6.8l.2.4v-1z" mask="url(#aff9a9b3588746f8936d2d8e0138800c)"></path></g><path fill="#000" d="M180 51.5v-9h1.3V46c.4-.7 1.1-1 2-1 1.7 0 2.2 1.1 2.2 2.2v4.3h-1.2v-3.7c0-1.1-.3-1.8-1.4-1.9-.5 0-1.2.4-1.4 1-.3.6-.2 1-.2 1.4v3.2H180M187.3 45.2V44l1.2-.4v1.7h1.4v.9h-1.4v4c0 .5.3.7.7.7l.7-.1v1h-1.6c-.2-.1-.5-.2-.7-.5-.3-.3-.3-.3-.3-1.2v-4h-1.1v-.8h1M192.9 45c1.2 0 2.5.5 2.4 2h-1.2c0-.8-.6-1.1-1.3-1.1-.6 0-1.1.3-1.1 1s1 .7 1.5.9c1 .3 2.3.5 2.3 1.9 0 1.5-1.5 2-2.8 2-1.3 0-2.4-.6-2.4-2h1.2c0 .7.6 1.1 1.3 1.1.7 0 1.4-.3 1.4-1 0-1.5-3.8-.4-3.8-2.9 0-1.3 1.3-1.9 2.5-1.9"></path></g></svg>