<?xml version="1.0" encoding="UTF-8"?>
<svg width="64px" height="64px" viewBox="0 0 64 64" version="1.1" xmlns="http://www.w3.org/2000/svg" xmlns:xlink="http://www.w3.org/1999/xlink">
    <title>Fav icon</title>
    <g id="Fav-icon" stroke="none" stroke-width="1" fill="none" fill-rule="evenodd">
        <rect id="Rectangle" fill="#7300E7" x="0" y="0" width="64" height="64"></rect>
        <polygon id="Path" fill="#FFFFFF" fill-rule="nonzero" points="3 7 14.5038542 7 19.2466713 22.7508056 28.0259285 7 39 7 25.3013315 31 10.7953749 31"></polygon>
        <path d="M41.8579099,56.9743842 C29.2544545,56.9743842 28.5200427,48.6492611 29.1596917,44.7300493 L39.1808602,44.7300493 C39.1808602,45.8315271 39.2519323,48.6236453 43.2793522,48.6236453 L43.4451872,48.6236453 C47.1409372,48.6236453 48.2780911,46.1133005 48.7045238,43.4492611 L50.5287081,31 L61,31 L59.1284343,43.679803 C58.3703317,49.2896552 56.5224566,57 43.942692,57 L41.8579099,56.9743842 Z" id="Path" fill="#FFFFFF" fill-rule="nonzero"></path>
        <path d="M25.9685083,37.1585366 C25.858011,37.0121951 25.7198895,36.9146341 25.5541436,36.8170732 C25.3331492,36.695122 25.0845304,36.6219512 24.8359116,36.597561 C24.4767956,36.5243902 24.1453039,36.5 23.7861878,36.5 C22.1287293,36.5 21.3,36.9634146 21.3,37.9146341 L21.3,38.0121951 C21.3,38.1829268 21.3276243,38.3536585 21.4104972,38.5243902 C21.4933702,38.695122 21.6038674,38.8658537 21.7696133,38.9878049 C21.9906077,39.1585366 22.2668508,39.304878 22.5430939,39.3536585 C22.9574586,39.4512195 23.3718232,39.5 23.8138122,39.5 C24.2281768,39.5 24.6701657,39.4512195 25.0569061,39.3536585 C25.3331492,39.2804878 25.6093923,39.1585366 25.8303867,38.9878049 C25.9961326,38.8658537 26.1066298,38.695122 26.1895028,38.5243902 C26.2723757,38.3536585 26.3,38.1829268 26.3,38.0121951 L26.3,37.9146341 C26.3,37.7926829 26.2723757,37.6463415 26.2447514,37.5243902 C26.1618785,37.402439 26.0790055,37.2560976 25.9685083,37.1585366 Z" id="Path" fill="#FFFFFF" fill-rule="nonzero"></path>
        <path d="M32.3731343,36.5 L30,36.5 L30,37.5 L32.3731343,37.5 C32.5298507,37.5 32.7089552,37.4545455 32.8432836,37.3636364 C32.9552239,37.2727273 33,37.1363636 33,37 L33,37 C33,36.8636364 32.9552239,36.7272727 32.8432836,36.6590909 C32.7089552,36.5454545 32.5522388,36.5 32.3731343,36.5 Z" id="Path" fill="#FFFFFF" fill-rule="nonzero"></path>
        <path d="M5,33 L5,43 L44,43 L44,33 L5,33 Z M19.2851711,36.5322196 L15.3060837,36.5322196 L15.3060837,37.3436754 L19.2110266,37.3436754 L19.2110266,38.5608592 L15.3060837,38.5608592 L15.3060837,40.6849642 L13.5760456,40.6849642 L13.5760456,35.3389021 L19.2851711,35.3389021 L19.2851711,36.5322196 Z M27.8612167,38.0835322 C27.8612167,38.2267303 27.8612167,38.3699284 27.8365019,38.5369928 C27.8117871,38.7040573 27.7623574,38.8711217 27.7129278,39.0381862 C27.6387833,39.2052506 27.5646388,39.372315 27.4410646,39.5393795 C27.3174905,39.7064439 27.1444867,39.8735084 26.9714829,40.0167064 C26.7490494,40.1837709 26.526616,40.3031026 26.2794677,40.4224344 C25.9581749,40.5417661 25.6368821,40.6372315 25.2908745,40.6849642 C24.8460076,40.7565632 24.4258555,40.7804296 23.9809886,40.7804296 L23.6596958,40.7804296 C23.2148289,40.7804296 22.769962,40.7565632 22.3498099,40.6849642 C22.0038023,40.6372315 21.6825095,40.5417661 21.3612167,40.4224344 C21.1140684,40.326969 20.8669202,40.1837709 20.6692015,40.0167064 C20.4961977,39.8735084 20.3231939,39.7303103 20.1996198,39.5393795 C20.1007605,39.3961814 20.0019011,39.2291169 19.9277567,39.0381862 C19.878327,38.8711217 19.8288973,38.7040573 19.8041825,38.5369928 C19.7794677,38.3937947 19.7794677,38.2505967 19.7794677,38.0835322 L19.7794677,37.8687351 C19.7794677,37.725537 19.7794677,37.5584726 19.8041825,37.4152745 C19.8288973,37.24821 19.878327,37.0811456 19.9277567,36.9140811 C20.0019011,36.7470167 20.0760456,36.5799523 20.1996198,36.4128878 C20.3231939,36.2458234 20.4961977,36.0787589 20.6692015,35.9594272 C20.891635,35.7923628 21.1140684,35.673031 21.3612167,35.5775656 C21.6825095,35.4582339 22.0285171,35.3627685 22.3745247,35.3150358 C22.8193916,35.2434368 23.2395437,35.2195704 23.6844106,35.2195704 L24.0057034,35.2195704 C24.4505703,35.2195704 24.8707224,35.2434368 25.3155894,35.3150358 C25.661597,35.3627685 25.9828897,35.4582339 26.3041825,35.5775656 C26.5513308,35.673031 26.7984791,35.8162291 26.9961977,35.9594272 C27.1692015,36.0787589 27.3174905,36.2458234 27.4657795,36.4128878 C27.5893536,36.5560859 27.6634981,36.7231504 27.7376426,36.9140811 C27.8117871,37.0811456 27.8365019,37.24821 27.8612167,37.4152745 C27.8859316,37.5584726 27.8859316,37.7016706 27.8859316,37.8687351 L27.8612167,38.0835322 Z M35.4239544,40.6610979 L33.6692015,40.6610979 C33.595057,40.5656325 33.5703422,40.4463007 33.595057,40.326969 L33.595057,39.7064439 C33.6197719,39.4439141 33.5209125,39.1813842 33.3231939,38.9904535 C33.0513308,38.823389 32.7547529,38.7279236 32.4334601,38.7756563 L30.1596958,38.7756563 L30.1596958,40.6610979 L28.4296578,40.6610979 L28.4296578,35.3389021 L32.878327,35.3389021 C34.4847909,35.3389021 35.2756654,35.7923628 35.2756654,36.7231504 L35.2756654,36.8186158 C35.2756654,36.9856802 35.2509506,37.1527446 35.1768061,37.3198091 C35.1273764,37.4630072 35.0285171,37.5823389 34.904943,37.6778043 C34.8060837,37.7494033 34.6825095,37.8210024 34.5836502,37.8926014 C34.4847909,37.9403341 34.3859316,37.9880668 34.2623574,38.0119332 C34.5589354,38.0835322 34.8060837,38.2267303 35.0285171,38.4415274 C35.2262357,38.6563246 35.3250951,38.9427208 35.3250951,39.2291169 L35.3250951,40.0167064 C35.3003802,40.2315036 35.3498099,40.4701671 35.4239544,40.6610979 L35.4239544,40.6610979 Z" id="Shape" fill="#FFFFFF" fill-rule="nonzero"></path>
    </g>
</svg>