<svg width="1540" height="601" viewBox="0 0 1540 601" fill="none" xmlns="http://www.w3.org/2000/svg">
<path d="M660.35 565.449L0.09375 566.257V597.964L660.35 597.169V565.449Z" fill="#231F20"/>
<path d="M381.213 265.918V247.474H282.181V265.918H292.339V513.851H282.181V532.287H292.339H371.422H381.213V513.851H371.422V265.918H381.213Z" fill="#231F20"/>
<path d="M503.044 265.918V247.474H404.012V265.918H414.163V513.851H404.012V532.287H414.163H493.254H503.044V513.851H493.254V265.918H503.044Z" fill="#231F20"/>
<path d="M624.876 265.918V247.474H525.836V265.918H535.995V513.851H525.836V532.287H535.995H615.085H624.876V513.851H615.085V265.918H624.876Z" fill="#231F20"/>
<path d="M194.524 391.813H233.48V407.999H194.524V391.813ZM159.366 391.813H187.096V407.999H159.366V391.813ZM148.726 416.075H139.96L141.274 406.964C139.976 406.011 139.079 404.537 139.079 402.807C139.079 399.897 141.434 397.543 144.343 397.543C147.243 397.543 149.599 399.897 149.599 402.807C149.599 404.545 148.71 406.011 147.411 406.964L148.726 416.075ZM101.756 391.813H129.487V407.999H101.756V391.813ZM55.3577 391.813H94.3137V407.999H55.3577V391.813ZM233.488 247.472V380.044H194.524V247.472H187.104V380.044H148.14V247.472H140.704V380.044H101.756V247.472H94.3217V380.044H55.3577V247.472H47.9297V532.799H55.3577V431.539H94.3217V532.799H101.756V431.539H129.488H140.704V532.799H148.14V431.539H159.366H187.104V532.799H194.524V431.539H233.488V532.799H240.923V431.539V407.999V247.472H233.488Z" fill="#231F20"/>
<path d="M661.553 174.606L332.015 0.000277195L0 174.606V213.226H661.553V174.606Z" fill="#231F20"/>
<path d="M776.571 580.045C763.879 566.448 757.535 547.779 757.535 524.036V387.125C757.535 357.624 763.264 335.38 774.719 320.396C786.172 305.415 804.143 297.921 828.629 297.921C849.967 297.921 867.148 303.92 880.179 315.9C893.203 327.891 899.72 345.177 899.72 367.763V418.929H842.105V375.021C842.105 366.496 841.096 360.621 839.072 357.392C837.051 354.167 833.565 352.551 828.629 352.551C823.459 352.551 819.921 354.399 818.013 358.083C816.101 361.772 815.151 367.187 815.151 374.331V523.345C815.151 531.184 816.271 536.889 818.52 540.459C820.763 544.035 824.132 545.82 828.629 545.82C837.608 545.82 842.105 538.331 842.105 523.345V469.755H900.393V525.763C900.393 575.553 876.019 600.447 827.279 600.447C806.163 600.447 789.26 593.652 776.571 580.045Z" fill="#231F20"/>
<path d="M999.115 538.905C1000.91 534.297 1001.81 527.837 1001.81 519.541V374.33C1001.81 367.878 1000.97 362.638 999.284 358.6C997.598 354.572 994.172 352.55 989.007 352.55C979.348 352.55 974.518 360.042 974.518 375.022V519.888C974.518 528.418 975.53 534.873 977.55 539.249C979.571 543.63 983.279 545.821 988.672 545.821C993.834 545.821 997.312 543.518 999.115 538.905V538.905ZM935.434 578.493C923.304 563.857 917.242 543.286 917.242 516.774V375.37C917.242 349.785 923.304 330.482 935.434 317.456C947.563 304.438 965.306 297.921 988.672 297.921C1012.03 297.921 1029.78 304.438 1041.91 317.456C1054.04 330.482 1060.1 349.785 1060.1 375.37V516.774C1060.1 543.518 1054.04 564.142 1041.91 578.662C1029.78 593.184 1012.03 600.446 988.672 600.446C965.306 600.446 947.563 593.13 935.434 578.493Z" fill="#231F20"/>
<path d="M1156.12 410.631C1164.21 410.631 1168.25 401.643 1168.25 383.666C1168.25 375.833 1167.92 369.954 1167.24 366.033C1166.57 362.115 1165.33 359.413 1163.54 357.909C1161.73 356.414 1159.15 355.659 1155.79 355.659H1142.31V410.631H1156.12ZM1083.34 300.687H1172.3C1186.45 300.687 1197.4 303.975 1205.15 310.542C1212.9 317.111 1218.12 326.333 1220.82 338.201C1223.51 350.075 1224.86 365.229 1224.86 383.666C1224.86 400.493 1222.72 413.63 1218.46 423.078C1214.19 432.531 1206.77 439.103 1196.22 442.787C1204.98 444.634 1211.32 449.131 1215.25 456.269C1219.18 463.419 1221.15 473.101 1221.15 485.315L1220.48 597.679H1163.87V481.509C1163.87 473.213 1162.3 467.913 1159.15 465.605C1156.01 463.303 1150.28 462.149 1141.97 462.149V597.679H1083.34V300.687Z" fill="#231F20"/>
<path d="M1304.37 426.535C1311.33 426.535 1316.44 425.215 1319.7 422.562C1322.95 419.915 1325.09 416.111 1326.1 411.15C1327.12 406.198 1327.62 399.11 1327.62 389.891C1327.62 377.445 1326.27 368.454 1323.58 362.923C1320.88 357.393 1315.49 354.625 1307.4 354.625H1301V426.535H1304.37ZM1244.06 300.687H1320.54C1343.68 300.687 1360.18 308.355 1370.07 323.679C1379.96 339.011 1384.9 361.425 1384.9 390.926C1384.9 420.434 1380.52 442.673 1371.76 457.653C1363 472.641 1347.27 480.126 1324.58 480.126H1301V597.679H1244.06V300.687Z" fill="#231F20"/>
<path d="M1414.88 580.393C1403.2 567.029 1397.36 545.473 1397.36 515.74V486.698H1454.3V523.689C1454.3 538.446 1458.9 545.82 1468.12 545.82C1473.28 545.82 1476.88 544.262 1478.9 541.149C1480.92 538.04 1481.93 532.798 1481.93 525.42C1481.93 515.74 1480.8 507.732 1478.56 501.392C1476.31 495.053 1473.45 489.754 1469.97 485.484C1466.48 481.224 1460.25 474.594 1451.27 465.605L1426.33 440.022C1407.01 420.66 1397.36 399.225 1397.36 375.713C1397.36 350.361 1403.03 331.057 1414.37 317.804C1425.71 304.55 1442.28 297.921 1464.08 297.921C1490.13 297.921 1508.89 305.009 1520.34 319.188C1531.8 333.36 1537.52 355.549 1537.52 385.742H1478.56L1478.22 365.341C1478.22 361.424 1477.15 358.314 1475.02 356.009C1472.88 353.706 1469.91 352.55 1466.1 352.55C1461.6 352.55 1458.23 353.817 1455.99 356.352C1453.74 358.89 1452.62 362.348 1452.62 366.724C1452.62 376.405 1458.01 386.433 1468.79 396.804L1502.48 429.993C1510.34 437.83 1516.86 445.268 1522.02 452.294C1527.19 459.329 1531.34 467.626 1534.49 477.186C1537.63 486.754 1539.21 498.104 1539.21 511.242C1539.21 540.521 1533.99 562.705 1523.54 577.802C1513.1 592.898 1495.85 600.446 1471.82 600.446C1445.54 600.446 1426.56 593.762 1414.88 580.393Z" fill="#231F20"/>
<path d="M759.48 228.651H1537.45V259.523H759.48V228.651Z" fill="#704C9E"/>
<path d="M767.608 182.914C761.119 175.963 757.876 166.417 757.876 154.278V84.2794C757.876 69.1967 760.804 57.8301 766.663 50.1661C772.518 42.5061 781.704 38.6794 794.223 38.6794C805.132 38.6794 813.915 41.7434 820.579 47.8687C827.238 53.9981 830.57 62.8354 830.57 74.3807V100.545H801.112V78.0967C801.112 73.7381 800.595 70.7314 799.563 69.0807C798.53 67.4301 796.747 66.6061 794.223 66.6061C791.58 66.6061 789.771 67.5514 788.796 69.4341C787.819 71.3207 787.332 74.0914 787.332 77.7407V153.926C787.332 157.933 787.907 160.85 789.055 162.674C790.2 164.503 791.924 165.414 794.223 165.414C798.815 165.414 801.112 161.586 801.112 153.926V126.526H830.915V155.162C830.915 180.617 818.454 193.345 793.534 193.345C782.738 193.345 774.096 189.869 767.608 182.914Z" fill="#231F20"/>
<path d="M839.356 40.0937H867.951V191.93H839.356V40.0937Z" fill="#231F20"/>
<path d="M893.443 191.93L875.185 39.9155H903.434L914.286 143.322L923.933 39.9155H952.181L933.921 191.93H893.443Z" fill="#231F20"/>
<path d="M959.243 40.0937H987.838V191.93H959.243V40.0937Z" fill="#231F20"/>
<path d="M999.722 191.93V40.0942H1029.35V166.124H1059.84V191.93H999.722Z" fill="#231F20"/>
<path d="M1145.62 96.303C1149.76 96.303 1151.82 91.7083 1151.82 82.5137C1151.82 78.507 1151.65 75.5057 1151.31 73.4977C1150.96 71.499 1150.33 70.111 1149.41 69.3443C1148.49 68.5817 1147.17 68.1977 1145.45 68.1977H1138.56V96.303H1145.62ZM1108.42 40.0937H1153.89C1161.12 40.0937 1166.72 41.771 1170.68 45.1297C1174.65 48.4897 1177.32 53.2003 1178.7 59.2723C1180.07 65.343 1180.76 73.087 1180.76 82.5137C1180.76 91.119 1179.67 97.8323 1177.49 102.664C1175.31 107.5 1171.52 110.859 1166.12 112.742C1170.6 113.683 1173.84 115.986 1175.85 119.635C1177.86 123.288 1178.87 128.24 1178.87 134.48L1178.52 191.93H1149.58V132.54C1149.58 128.298 1148.78 125.586 1147.17 124.408C1145.56 123.23 1142.63 122.64 1138.39 122.64V191.93H1108.42V40.0937Z" fill="#231F20"/>
<path d="M1189.2 40.0937H1217.79V191.93H1189.2V40.0937Z" fill="#231F20"/>
<path d="M1236.31 181.768C1231.09 174.051 1228.47 162.353 1228.47 146.677V81.2772C1228.47 67.2572 1231.51 56.6492 1237.6 49.4626C1243.69 42.2746 1252.76 38.6799 1264.82 38.6799C1274.58 38.6799 1282.16 40.6826 1287.56 44.6879C1292.95 48.6946 1296.69 54.5292 1298.76 62.1839C1300.82 69.8492 1301.85 79.6852 1301.85 91.7079H1272.92V78.0972C1272.92 74.4439 1272.43 71.6159 1271.45 69.6119C1270.47 67.6092 1268.73 66.6052 1266.2 66.6052C1260.57 66.6052 1257.76 70.3799 1257.76 77.9186V151.451C1257.76 156.045 1258.33 159.525 1259.48 161.88C1260.63 164.24 1262.63 165.413 1265.51 165.413C1268.38 165.413 1270.39 164.24 1271.54 161.88C1272.69 159.525 1273.26 156.045 1273.26 151.451V129.712H1265.34V103.548H1301.51V191.931H1289.62L1284.63 179.203C1279.35 188.633 1271.19 193.345 1260.17 193.345C1249.49 193.345 1241.53 189.485 1236.31 181.768Z" fill="#231F20"/>
<path d="M1313.22 191.93V40.0942H1342.68V94.3582H1356.63V40.0942H1386.09V191.93H1356.63V122.993H1342.68V191.93H1313.22Z" fill="#231F20"/>
<path d="M1411.92 191.93V69.2555H1394.35V40.0942H1459.12V69.2555H1441.55V191.93H1411.92Z" fill="#231F20"/>
<path d="M1473.42 183.093C1467.45 176.259 1464.46 165.239 1464.46 150.037V135.19H1493.57V154.105C1493.57 161.645 1495.93 165.414 1500.64 165.414C1503.28 165.414 1505.12 164.619 1506.15 163.031C1507.18 161.439 1507.7 158.758 1507.7 154.987C1507.7 150.037 1507.12 145.946 1505.98 142.702C1504.83 139.463 1503.36 136.751 1501.58 134.57C1499.8 132.393 1496.61 129.002 1492.02 124.407L1479.28 111.327C1469.4 101.429 1464.46 90.4674 1464.46 78.4501C1464.46 65.4861 1467.36 55.6181 1473.16 48.8421C1478.96 42.0647 1487.43 38.6794 1498.57 38.6794C1511.89 38.6794 1521.48 42.3021 1527.34 49.5461C1533.19 56.7954 1536.12 68.1407 1536.12 83.5754H1505.98L1505.8 73.1461C1505.8 71.1421 1505.26 69.5541 1504.17 68.3714C1503.07 67.1994 1501.56 66.6061 1499.6 66.6061C1497.31 66.6061 1495.58 67.2567 1494.44 68.5501C1493.29 69.8487 1492.71 71.6154 1492.71 73.8541C1492.71 78.8021 1495.47 83.9274 1500.98 89.2314L1518.21 106.202C1522.23 110.207 1525.56 114.009 1528.2 117.599C1530.84 121.195 1532.96 125.438 1534.57 130.327C1536.18 135.221 1536.98 141.021 1536.98 147.739C1536.98 162.706 1534.31 174.05 1528.97 181.767C1523.63 189.485 1514.82 193.345 1502.53 193.345C1489.1 193.345 1479.39 189.927 1473.42 183.093Z" fill="#231F20"/>
</svg>
